%TF.GenerationSoftware,KiCad,Pcbnew,7.0.10*%
%TF.CreationDate,2024-06-03T15:36:03+09:00*%
%TF.ProjectId,JUICEJACK-DEFENDER,4a554943-454a-4414-934b-2d444546454e,rev?*%
%TF.SameCoordinates,PX6422c40PY592b260*%
%TF.FileFunction,Legend,Bot*%
%TF.FilePolarity,Positive*%
%FSLAX46Y46*%
G04 Gerber Fmt 4.6, Leading zero omitted, Abs format (unit mm)*
G04 Created by KiCad (PCBNEW 7.0.10) date 2024-06-03 15:36:03*
%MOMM*%
%LPD*%
G01*
G04 APERTURE LIST*
%ADD10C,0.200000*%
%ADD11C,0.150000*%
G04 APERTURE END LIST*
D10*
X11404136Y8445020D02*
X11404136Y9545020D01*
X11404136Y9021210D02*
X10889850Y9021210D01*
X10889850Y8445020D02*
X10889850Y9545020D01*
X10075565Y8445020D02*
X10075565Y9021210D01*
X10075565Y9021210D02*
X10118422Y9125972D01*
X10118422Y9125972D02*
X10204136Y9178353D01*
X10204136Y9178353D02*
X10375565Y9178353D01*
X10375565Y9178353D02*
X10461279Y9125972D01*
X10075565Y8497400D02*
X10161279Y8445020D01*
X10161279Y8445020D02*
X10375565Y8445020D01*
X10375565Y8445020D02*
X10461279Y8497400D01*
X10461279Y8497400D02*
X10504136Y8602162D01*
X10504136Y8602162D02*
X10504136Y8706924D01*
X10504136Y8706924D02*
X10461279Y8811686D01*
X10461279Y8811686D02*
X10375565Y8864067D01*
X10375565Y8864067D02*
X10161279Y8864067D01*
X10161279Y8864067D02*
X10075565Y8916448D01*
X9646993Y8445020D02*
X9646993Y9178353D01*
X9646993Y8968829D02*
X9604136Y9073591D01*
X9604136Y9073591D02*
X9561279Y9125972D01*
X9561279Y9125972D02*
X9475564Y9178353D01*
X9475564Y9178353D02*
X9389850Y9178353D01*
X8704136Y8445020D02*
X8704136Y9545020D01*
X8704136Y8497400D02*
X8789850Y8445020D01*
X8789850Y8445020D02*
X8961278Y8445020D01*
X8961278Y8445020D02*
X9046993Y8497400D01*
X9046993Y8497400D02*
X9089850Y8549781D01*
X9089850Y8549781D02*
X9132707Y8654543D01*
X9132707Y8654543D02*
X9132707Y8968829D01*
X9132707Y8968829D02*
X9089850Y9073591D01*
X9089850Y9073591D02*
X9046993Y9125972D01*
X9046993Y9125972D02*
X8961278Y9178353D01*
X8961278Y9178353D02*
X8789850Y9178353D01*
X8789850Y9178353D02*
X8704136Y9125972D01*
X8361278Y9178353D02*
X8189850Y8445020D01*
X8189850Y8445020D02*
X8018421Y8968829D01*
X8018421Y8968829D02*
X7846992Y8445020D01*
X7846992Y8445020D02*
X7675564Y9178353D01*
X6946993Y8445020D02*
X6946993Y9021210D01*
X6946993Y9021210D02*
X6989850Y9125972D01*
X6989850Y9125972D02*
X7075564Y9178353D01*
X7075564Y9178353D02*
X7246993Y9178353D01*
X7246993Y9178353D02*
X7332707Y9125972D01*
X6946993Y8497400D02*
X7032707Y8445020D01*
X7032707Y8445020D02*
X7246993Y8445020D01*
X7246993Y8445020D02*
X7332707Y8497400D01*
X7332707Y8497400D02*
X7375564Y8602162D01*
X7375564Y8602162D02*
X7375564Y8706924D01*
X7375564Y8706924D02*
X7332707Y8811686D01*
X7332707Y8811686D02*
X7246993Y8864067D01*
X7246993Y8864067D02*
X7032707Y8864067D01*
X7032707Y8864067D02*
X6946993Y8916448D01*
X6518421Y8445020D02*
X6518421Y9178353D01*
X6518421Y8968829D02*
X6475564Y9073591D01*
X6475564Y9073591D02*
X6432707Y9125972D01*
X6432707Y9125972D02*
X6346992Y9178353D01*
X6346992Y9178353D02*
X6261278Y9178353D01*
X5618421Y8497400D02*
X5704135Y8445020D01*
X5704135Y8445020D02*
X5875564Y8445020D01*
X5875564Y8445020D02*
X5961278Y8497400D01*
X5961278Y8497400D02*
X6004135Y8602162D01*
X6004135Y8602162D02*
X6004135Y9021210D01*
X6004135Y9021210D02*
X5961278Y9125972D01*
X5961278Y9125972D02*
X5875564Y9178353D01*
X5875564Y9178353D02*
X5704135Y9178353D01*
X5704135Y9178353D02*
X5618421Y9125972D01*
X5618421Y9125972D02*
X5575564Y9021210D01*
X5575564Y9021210D02*
X5575564Y8916448D01*
X5575564Y8916448D02*
X6004135Y8811686D01*
X5189849Y8445020D02*
X5189849Y9545020D01*
X5189849Y9545020D02*
X4975563Y9545020D01*
X4975563Y9545020D02*
X4846992Y9492639D01*
X4846992Y9492639D02*
X4761277Y9387877D01*
X4761277Y9387877D02*
X4718420Y9283115D01*
X4718420Y9283115D02*
X4675563Y9073591D01*
X4675563Y9073591D02*
X4675563Y8916448D01*
X4675563Y8916448D02*
X4718420Y8706924D01*
X4718420Y8706924D02*
X4761277Y8602162D01*
X4761277Y8602162D02*
X4846992Y8497400D01*
X4846992Y8497400D02*
X4975563Y8445020D01*
X4975563Y8445020D02*
X5189849Y8445020D01*
X4289849Y8445020D02*
X4289849Y9178353D01*
X4289849Y8968829D02*
X4246992Y9073591D01*
X4246992Y9073591D02*
X4204135Y9125972D01*
X4204135Y9125972D02*
X4118420Y9178353D01*
X4118420Y9178353D02*
X4032706Y9178353D01*
X3389849Y8497400D02*
X3475563Y8445020D01*
X3475563Y8445020D02*
X3646992Y8445020D01*
X3646992Y8445020D02*
X3732706Y8497400D01*
X3732706Y8497400D02*
X3775563Y8602162D01*
X3775563Y8602162D02*
X3775563Y9021210D01*
X3775563Y9021210D02*
X3732706Y9125972D01*
X3732706Y9125972D02*
X3646992Y9178353D01*
X3646992Y9178353D02*
X3475563Y9178353D01*
X3475563Y9178353D02*
X3389849Y9125972D01*
X3389849Y9125972D02*
X3346992Y9021210D01*
X3346992Y9021210D02*
X3346992Y8916448D01*
X3346992Y8916448D02*
X3775563Y8811686D01*
X2575563Y8445020D02*
X2575563Y9021210D01*
X2575563Y9021210D02*
X2618420Y9125972D01*
X2618420Y9125972D02*
X2704134Y9178353D01*
X2704134Y9178353D02*
X2875563Y9178353D01*
X2875563Y9178353D02*
X2961277Y9125972D01*
X2575563Y8497400D02*
X2661277Y8445020D01*
X2661277Y8445020D02*
X2875563Y8445020D01*
X2875563Y8445020D02*
X2961277Y8497400D01*
X2961277Y8497400D02*
X3004134Y8602162D01*
X3004134Y8602162D02*
X3004134Y8706924D01*
X3004134Y8706924D02*
X2961277Y8811686D01*
X2961277Y8811686D02*
X2875563Y8864067D01*
X2875563Y8864067D02*
X2661277Y8864067D01*
X2661277Y8864067D02*
X2575563Y8916448D01*
X2146991Y8445020D02*
X2146991Y9178353D01*
X2146991Y9073591D02*
X2104134Y9125972D01*
X2104134Y9125972D02*
X2018419Y9178353D01*
X2018419Y9178353D02*
X1889848Y9178353D01*
X1889848Y9178353D02*
X1804134Y9125972D01*
X1804134Y9125972D02*
X1761277Y9021210D01*
X1761277Y9021210D02*
X1761277Y8445020D01*
X1761277Y9021210D02*
X1718419Y9125972D01*
X1718419Y9125972D02*
X1632705Y9178353D01*
X1632705Y9178353D02*
X1504134Y9178353D01*
X1504134Y9178353D02*
X1418419Y9125972D01*
X1418419Y9125972D02*
X1375562Y9021210D01*
X1375562Y9021210D02*
X1375562Y8445020D01*
X989848Y8497400D02*
X904134Y8445020D01*
X904134Y8445020D02*
X732705Y8445020D01*
X732705Y8445020D02*
X646991Y8497400D01*
X646991Y8497400D02*
X604134Y8602162D01*
X604134Y8602162D02*
X604134Y8654543D01*
X604134Y8654543D02*
X646991Y8759305D01*
X646991Y8759305D02*
X732705Y8811686D01*
X732705Y8811686D02*
X861277Y8811686D01*
X861277Y8811686D02*
X946991Y8864067D01*
X946991Y8864067D02*
X989848Y8968829D01*
X989848Y8968829D02*
X989848Y9021210D01*
X989848Y9021210D02*
X946991Y9125972D01*
X946991Y9125972D02*
X861277Y9178353D01*
X861277Y9178353D02*
X732705Y9178353D01*
X732705Y9178353D02*
X646991Y9125972D01*
D11*
X5917982Y3882229D02*
X5884649Y3925086D01*
X5884649Y3925086D02*
X5817982Y3967943D01*
X5817982Y3967943D02*
X5651316Y3967943D01*
X5651316Y3967943D02*
X5584649Y3925086D01*
X5584649Y3925086D02*
X5551316Y3882229D01*
X5551316Y3882229D02*
X5517982Y3796515D01*
X5517982Y3796515D02*
X5517982Y3710800D01*
X5517982Y3710800D02*
X5551316Y3582229D01*
X5551316Y3582229D02*
X5951316Y3067943D01*
X5951316Y3067943D02*
X5517982Y3067943D01*
X5084649Y3967943D02*
X5017982Y3967943D01*
X5017982Y3967943D02*
X4951315Y3925086D01*
X4951315Y3925086D02*
X4917982Y3882229D01*
X4917982Y3882229D02*
X4884649Y3796515D01*
X4884649Y3796515D02*
X4851315Y3625086D01*
X4851315Y3625086D02*
X4851315Y3410800D01*
X4851315Y3410800D02*
X4884649Y3239372D01*
X4884649Y3239372D02*
X4917982Y3153658D01*
X4917982Y3153658D02*
X4951315Y3110800D01*
X4951315Y3110800D02*
X5017982Y3067943D01*
X5017982Y3067943D02*
X5084649Y3067943D01*
X5084649Y3067943D02*
X5151315Y3110800D01*
X5151315Y3110800D02*
X5184649Y3153658D01*
X5184649Y3153658D02*
X5217982Y3239372D01*
X5217982Y3239372D02*
X5251315Y3410800D01*
X5251315Y3410800D02*
X5251315Y3625086D01*
X5251315Y3625086D02*
X5217982Y3796515D01*
X5217982Y3796515D02*
X5184649Y3882229D01*
X5184649Y3882229D02*
X5151315Y3925086D01*
X5151315Y3925086D02*
X5084649Y3967943D01*
X4584648Y3882229D02*
X4551315Y3925086D01*
X4551315Y3925086D02*
X4484648Y3967943D01*
X4484648Y3967943D02*
X4317982Y3967943D01*
X4317982Y3967943D02*
X4251315Y3925086D01*
X4251315Y3925086D02*
X4217982Y3882229D01*
X4217982Y3882229D02*
X4184648Y3796515D01*
X4184648Y3796515D02*
X4184648Y3710800D01*
X4184648Y3710800D02*
X4217982Y3582229D01*
X4217982Y3582229D02*
X4617982Y3067943D01*
X4617982Y3067943D02*
X4184648Y3067943D01*
X3584648Y3667943D02*
X3584648Y3067943D01*
X3751315Y4010800D02*
X3917981Y3367943D01*
X3917981Y3367943D02*
X3484648Y3367943D01*
X3217981Y3410800D02*
X2684648Y3410800D01*
X2151314Y3967943D02*
X2151314Y3325086D01*
X2151314Y3325086D02*
X2184647Y3196515D01*
X2184647Y3196515D02*
X2251314Y3110800D01*
X2251314Y3110800D02*
X2351314Y3067943D01*
X2351314Y3067943D02*
X2417981Y3067943D01*
X1817981Y3967943D02*
X1817981Y3239372D01*
X1817981Y3239372D02*
X1784648Y3153658D01*
X1784648Y3153658D02*
X1751314Y3110800D01*
X1751314Y3110800D02*
X1684648Y3067943D01*
X1684648Y3067943D02*
X1551314Y3067943D01*
X1551314Y3067943D02*
X1484648Y3110800D01*
X1484648Y3110800D02*
X1451314Y3153658D01*
X1451314Y3153658D02*
X1417981Y3239372D01*
X1417981Y3239372D02*
X1417981Y3967943D01*
X1084648Y3067943D02*
X1084648Y3967943D01*
X1084648Y3967943D02*
X684648Y3067943D01*
X684648Y3067943D02*
X684648Y3967943D01*
D10*
X14966019Y2753007D02*
X14180304Y2753007D01*
X14180304Y2753007D02*
X14023161Y2710150D01*
X14023161Y2710150D02*
X13918400Y2624436D01*
X13918400Y2624436D02*
X13866019Y2495864D01*
X13866019Y2495864D02*
X13866019Y2410150D01*
X14966019Y3181578D02*
X14075542Y3181578D01*
X14075542Y3181578D02*
X13970780Y3224435D01*
X13970780Y3224435D02*
X13918400Y3267292D01*
X13918400Y3267292D02*
X13866019Y3353007D01*
X13866019Y3353007D02*
X13866019Y3524435D01*
X13866019Y3524435D02*
X13918400Y3610150D01*
X13918400Y3610150D02*
X13970780Y3653007D01*
X13970780Y3653007D02*
X14075542Y3695864D01*
X14075542Y3695864D02*
X14966019Y3695864D01*
X13866019Y4124435D02*
X14966019Y4124435D01*
X13970780Y5067292D02*
X13918400Y5024435D01*
X13918400Y5024435D02*
X13866019Y4895863D01*
X13866019Y4895863D02*
X13866019Y4810149D01*
X13866019Y4810149D02*
X13918400Y4681578D01*
X13918400Y4681578D02*
X14023161Y4595863D01*
X14023161Y4595863D02*
X14127923Y4553006D01*
X14127923Y4553006D02*
X14337447Y4510149D01*
X14337447Y4510149D02*
X14494590Y4510149D01*
X14494590Y4510149D02*
X14704114Y4553006D01*
X14704114Y4553006D02*
X14808876Y4595863D01*
X14808876Y4595863D02*
X14913638Y4681578D01*
X14913638Y4681578D02*
X14966019Y4810149D01*
X14966019Y4810149D02*
X14966019Y4895863D01*
X14966019Y4895863D02*
X14913638Y5024435D01*
X14913638Y5024435D02*
X14861257Y5067292D01*
X14442209Y5453006D02*
X14442209Y5753006D01*
X13866019Y5881578D02*
X13866019Y5453006D01*
X13866019Y5453006D02*
X14966019Y5453006D01*
X14966019Y5453006D02*
X14966019Y5881578D01*
X14285066Y6267292D02*
X14285066Y6953006D01*
X14966019Y7638721D02*
X14180304Y7638721D01*
X14180304Y7638721D02*
X14023161Y7595864D01*
X14023161Y7595864D02*
X13918400Y7510150D01*
X13918400Y7510150D02*
X13866019Y7381578D01*
X13866019Y7381578D02*
X13866019Y7295864D01*
X14180304Y8024435D02*
X14180304Y8453006D01*
X13866019Y7938721D02*
X14966019Y8238721D01*
X14966019Y8238721D02*
X13866019Y8538721D01*
X13970780Y9353007D02*
X13918400Y9310150D01*
X13918400Y9310150D02*
X13866019Y9181578D01*
X13866019Y9181578D02*
X13866019Y9095864D01*
X13866019Y9095864D02*
X13918400Y8967293D01*
X13918400Y8967293D02*
X14023161Y8881578D01*
X14023161Y8881578D02*
X14127923Y8838721D01*
X14127923Y8838721D02*
X14337447Y8795864D01*
X14337447Y8795864D02*
X14494590Y8795864D01*
X14494590Y8795864D02*
X14704114Y8838721D01*
X14704114Y8838721D02*
X14808876Y8881578D01*
X14808876Y8881578D02*
X14913638Y8967293D01*
X14913638Y8967293D02*
X14966019Y9095864D01*
X14966019Y9095864D02*
X14966019Y9181578D01*
X14966019Y9181578D02*
X14913638Y9310150D01*
X14913638Y9310150D02*
X14861257Y9353007D01*
X13866019Y9738721D02*
X14966019Y9738721D01*
X13866019Y10253007D02*
X14494590Y9867293D01*
X14966019Y10253007D02*
X14337447Y9738721D01*
X12095019Y2495864D02*
X13195019Y2495864D01*
X13195019Y2495864D02*
X13195019Y2710150D01*
X13195019Y2710150D02*
X13142638Y2838721D01*
X13142638Y2838721D02*
X13037876Y2924436D01*
X13037876Y2924436D02*
X12933114Y2967293D01*
X12933114Y2967293D02*
X12723590Y3010150D01*
X12723590Y3010150D02*
X12566447Y3010150D01*
X12566447Y3010150D02*
X12356923Y2967293D01*
X12356923Y2967293D02*
X12252161Y2924436D01*
X12252161Y2924436D02*
X12147400Y2838721D01*
X12147400Y2838721D02*
X12095019Y2710150D01*
X12095019Y2710150D02*
X12095019Y2495864D01*
X12671209Y3395864D02*
X12671209Y3695864D01*
X12095019Y3824436D02*
X12095019Y3395864D01*
X12095019Y3395864D02*
X13195019Y3395864D01*
X13195019Y3395864D02*
X13195019Y3824436D01*
X12671209Y4510150D02*
X12671209Y4210150D01*
X12095019Y4210150D02*
X13195019Y4210150D01*
X13195019Y4210150D02*
X13195019Y4638722D01*
X12671209Y4981579D02*
X12671209Y5281579D01*
X12095019Y5410151D02*
X12095019Y4981579D01*
X12095019Y4981579D02*
X13195019Y4981579D01*
X13195019Y4981579D02*
X13195019Y5410151D01*
X12095019Y5795865D02*
X13195019Y5795865D01*
X13195019Y5795865D02*
X12095019Y6310151D01*
X12095019Y6310151D02*
X13195019Y6310151D01*
X12095019Y6738722D02*
X13195019Y6738722D01*
X13195019Y6738722D02*
X13195019Y6953008D01*
X13195019Y6953008D02*
X13142638Y7081579D01*
X13142638Y7081579D02*
X13037876Y7167294D01*
X13037876Y7167294D02*
X12933114Y7210151D01*
X12933114Y7210151D02*
X12723590Y7253008D01*
X12723590Y7253008D02*
X12566447Y7253008D01*
X12566447Y7253008D02*
X12356923Y7210151D01*
X12356923Y7210151D02*
X12252161Y7167294D01*
X12252161Y7167294D02*
X12147400Y7081579D01*
X12147400Y7081579D02*
X12095019Y6953008D01*
X12095019Y6953008D02*
X12095019Y6738722D01*
X12671209Y7638722D02*
X12671209Y7938722D01*
X12095019Y8067294D02*
X12095019Y7638722D01*
X12095019Y7638722D02*
X13195019Y7638722D01*
X13195019Y7638722D02*
X13195019Y8067294D01*
X12095019Y8967294D02*
X12618828Y8667294D01*
X12095019Y8453008D02*
X13195019Y8453008D01*
X13195019Y8453008D02*
X13195019Y8795865D01*
X13195019Y8795865D02*
X13142638Y8881580D01*
X13142638Y8881580D02*
X13090257Y8924437D01*
X13090257Y8924437D02*
X12985495Y8967294D01*
X12985495Y8967294D02*
X12828352Y8967294D01*
X12828352Y8967294D02*
X12723590Y8924437D01*
X12723590Y8924437D02*
X12671209Y8881580D01*
X12671209Y8881580D02*
X12618828Y8795865D01*
X12618828Y8795865D02*
X12618828Y8453008D01*
M02*
